# xmcd
#
# Track frame offsets:
#	150
#	17196
#	35096
#	54587
#	74662
#	94846
#	113936
#	134191
#	151304
#	169202
#	186622
#	205162
#	225579
#	243163
#	260796
#	276173
#	291082
#	310231
#	332844
#
# Disc length: 4667 seconds
# Revision: 0
# Processed by: cddbd v1.5.2PL0 Copyright (c) Steve Scherf et al.
# Submitted via: dBpowerAMP V12.0
#
DISCID=2f123913
DTITLE=Per Petterson - Ich verfluche den Fluss der Zeit CD3
DYEAR=2009
DGENRE=Hörbuch
TTITLE0=137
TTITLE1=138
TTITLE2=139
TTITLE3=140
TTITLE4=141
TTITLE5=142
TTITLE6=143
TTITLE7=144
TTITLE8=145
TTITLE9=146
TTITLE10=147
TTITLE11=148
TTITLE12=149
TTITLE13=150
TTITLE14=151
TTITLE15=152
TTITLE16=153
TTITLE17=154
TTITLE18=155
EXTD=
EXTT0=
EXTT1=
EXTT2=
EXTT3=
EXTT4=
EXTT5=
EXTT6=
EXTT7=
EXTT8=
EXTT9=
EXTT10=
EXTT11=
EXTT12=
EXTT13=
EXTT14=
EXTT15=
EXTT16=
EXTT17=
EXTT18=
PLAYORDER=
